<svg width="1920" height="240" viewBox="0 0 1920 240" fill="none" xmlns="http://www.w3.org/2000/svg">
<rect width="1920" height="240" fill="#8CFBA4"/>
<path d="M760.284 155V85.1818H777.159V113.205H804.67V85.1818H821.511V155H804.67V126.943H777.159V155H760.284ZM856.54 155.989C851.04 155.989 846.313 154.864 842.358 152.614C838.426 150.341 835.392 147.182 833.256 143.136C831.142 139.068 830.085 134.352 830.085 128.989C830.085 123.602 831.142 118.886 833.256 114.841C835.392 110.773 838.426 107.614 842.358 105.364C846.313 103.091 851.04 101.955 856.54 101.955C862.04 101.955 866.756 103.091 870.688 105.364C874.642 107.614 877.676 110.773 879.79 114.841C881.926 118.886 882.994 123.602 882.994 128.989C882.994 134.352 881.926 139.068 879.79 143.136C877.676 147.182 874.642 150.341 870.688 152.614C866.756 154.864 862.04 155.989 856.54 155.989ZM856.642 143.409C858.642 143.409 860.335 142.795 861.722 141.568C863.108 140.341 864.165 138.636 864.892 136.455C865.642 134.273 866.017 131.75 866.017 128.886C866.017 125.977 865.642 123.432 864.892 121.25C864.165 119.068 863.108 117.364 861.722 116.136C860.335 114.909 858.642 114.295 856.642 114.295C854.574 114.295 852.824 114.909 851.392 116.136C849.983 117.364 848.903 119.068 848.153 121.25C847.426 123.432 847.062 125.977 847.062 128.886C847.062 131.75 847.426 134.273 848.153 136.455C848.903 138.636 849.983 140.341 851.392 141.568C852.824 142.795 854.574 143.409 856.642 143.409ZM891.534 155V102.636H907.727V112.182H908.273C909.227 108.727 910.784 106.159 912.943 104.477C915.102 102.773 917.614 101.92 920.477 101.92C921.25 101.92 922.045 101.977 922.864 102.091C923.682 102.182 924.443 102.33 925.148 102.534V117.023C924.352 116.75 923.307 116.534 922.011 116.375C920.739 116.216 919.602 116.136 918.602 116.136C916.625 116.136 914.841 116.58 913.25 117.466C911.682 118.33 910.443 119.545 909.534 121.114C908.648 122.659 908.205 124.477 908.205 126.568V155H891.534ZM944.733 155.886C941.392 155.886 938.426 155.33 935.835 154.216C933.267 153.08 931.233 151.375 929.733 149.102C928.256 146.807 927.517 143.932 927.517 140.477C927.517 137.568 928.028 135.114 929.051 133.114C930.074 131.114 931.483 129.489 933.278 128.239C935.074 126.989 937.142 126.045 939.483 125.409C941.824 124.75 944.324 124.307 946.983 124.08C949.96 123.807 952.358 123.523 954.176 123.227C955.994 122.909 957.313 122.466 958.131 121.898C958.972 121.307 959.392 120.477 959.392 119.409V119.239C959.392 117.489 958.79 116.136 957.585 115.182C956.381 114.227 954.756 113.75 952.71 113.75C950.506 113.75 948.733 114.227 947.392 115.182C946.051 116.136 945.199 117.455 944.835 119.136L929.46 118.591C929.915 115.409 931.085 112.568 932.972 110.068C934.881 107.545 937.494 105.568 940.812 104.136C944.153 102.682 948.165 101.955 952.847 101.955C956.188 101.955 959.267 102.352 962.085 103.148C964.903 103.92 967.358 105.057 969.449 106.557C971.54 108.034 973.153 109.852 974.29 112.011C975.449 114.17 976.028 116.636 976.028 119.409V155H960.347V147.705H959.938C959.006 149.477 957.813 150.977 956.358 152.205C954.926 153.432 953.233 154.352 951.278 154.966C949.347 155.58 947.165 155.886 944.733 155.886ZM949.881 144.977C951.676 144.977 953.29 144.614 954.722 143.886C956.176 143.159 957.335 142.159 958.199 140.886C959.063 139.591 959.494 138.091 959.494 136.386V131.409C959.017 131.659 958.438 131.886 957.756 132.091C957.097 132.295 956.369 132.489 955.574 132.67C954.778 132.852 953.96 133.011 953.119 133.148C952.278 133.284 951.472 133.409 950.699 133.523C949.131 133.773 947.79 134.159 946.676 134.682C945.585 135.205 944.744 135.886 944.153 136.727C943.585 137.545 943.301 138.523 943.301 139.659C943.301 141.386 943.915 142.705 945.142 143.614C946.392 144.523 947.972 144.977 949.881 144.977ZM947.665 95.9886L954.551 80.6136H969.312L959.017 95.9886H947.665ZM986.222 155V102.636H1002.41V112.182H1002.96C1003.91 108.727 1005.47 106.159 1007.63 104.477C1009.79 102.773 1012.3 101.92 1015.16 101.92C1015.94 101.92 1016.73 101.977 1017.55 102.091C1018.37 102.182 1019.13 102.33 1019.84 102.534V117.023C1019.04 116.75 1017.99 116.534 1016.7 116.375C1015.43 116.216 1014.29 116.136 1013.29 116.136C1011.31 116.136 1009.53 116.58 1007.94 117.466C1006.37 118.33 1005.13 119.545 1004.22 121.114C1003.34 122.659 1002.89 124.477 1002.89 126.568V155H986.222ZM1026.63 155V102.636H1043.3V155H1026.63ZM1034.98 96.5341C1032.64 96.5341 1030.63 95.7614 1028.95 94.2159C1027.26 92.6477 1026.42 90.7614 1026.42 88.5568C1026.42 86.375 1027.26 84.5114 1028.95 82.9659C1030.63 81.3977 1032.64 80.6136 1034.98 80.6136C1037.34 80.6136 1039.36 81.3977 1041.01 82.9659C1042.7 84.5114 1043.54 86.375 1043.54 88.5568C1043.54 90.7614 1042.7 92.6477 1041.01 94.2159C1039.36 95.7614 1037.34 96.5341 1034.98 96.5341ZM1078.35 155.989C1072.85 155.989 1068.13 154.864 1064.17 152.614C1060.24 150.341 1057.2 147.182 1055.07 143.136C1052.95 139.068 1051.9 134.352 1051.9 128.989C1051.9 123.602 1052.95 118.886 1055.07 114.841C1057.2 110.773 1060.24 107.614 1064.17 105.364C1068.13 103.091 1072.85 101.955 1078.35 101.955C1083.85 101.955 1088.57 103.091 1092.5 105.364C1096.45 107.614 1099.49 110.773 1101.6 114.841C1103.74 118.886 1104.81 123.602 1104.81 128.989C1104.81 134.352 1103.74 139.068 1101.6 143.136C1099.49 147.182 1096.45 150.341 1092.5 152.614C1088.57 154.864 1083.85 155.989 1078.35 155.989ZM1078.45 143.409C1080.45 143.409 1082.15 142.795 1083.53 141.568C1084.92 140.341 1085.98 138.636 1086.7 136.455C1087.45 134.273 1087.83 131.75 1087.83 128.886C1087.83 125.977 1087.45 123.432 1086.7 121.25C1085.98 119.068 1084.92 117.364 1083.53 116.136C1082.15 114.909 1080.45 114.295 1078.45 114.295C1076.39 114.295 1074.64 114.909 1073.2 116.136C1071.8 117.364 1070.72 119.068 1069.97 121.25C1069.24 123.432 1068.88 125.977 1068.88 128.886C1068.88 131.75 1069.24 134.273 1069.97 136.455C1070.72 138.636 1071.8 140.341 1073.2 141.568C1074.64 142.795 1076.39 143.409 1078.45 143.409ZM1159.06 118.625L1143.76 119.034C1143.6 117.943 1143.16 116.977 1142.46 116.136C1141.76 115.273 1140.84 114.602 1139.7 114.125C1138.59 113.625 1137.29 113.375 1135.81 113.375C1133.88 113.375 1132.23 113.761 1130.87 114.534C1129.53 115.307 1128.87 116.352 1128.89 117.67C1128.87 118.693 1129.28 119.58 1130.12 120.33C1130.98 121.08 1132.52 121.682 1134.72 122.136L1144.81 124.045C1150.04 125.045 1153.93 126.705 1156.47 129.023C1159.04 131.341 1160.34 134.409 1160.36 138.227C1160.34 141.818 1159.27 144.943 1157.15 147.602C1155.06 150.261 1152.2 152.33 1148.56 153.807C1144.93 155.261 1140.77 155.989 1136.09 155.989C1128.61 155.989 1122.71 154.455 1118.39 151.386C1114.1 148.295 1111.64 144.159 1111.03 138.977L1127.49 138.568C1127.86 140.477 1128.8 141.932 1130.32 142.932C1131.85 143.932 1133.79 144.432 1136.15 144.432C1138.29 144.432 1140.03 144.034 1141.37 143.239C1142.71 142.443 1143.39 141.386 1143.41 140.068C1143.39 138.886 1142.87 137.943 1141.85 137.239C1140.82 136.511 1139.22 135.943 1137.04 135.534L1127.9 133.795C1122.65 132.841 1118.74 131.08 1116.18 128.511C1113.61 125.92 1112.34 122.625 1112.36 118.625C1112.34 115.125 1113.27 112.136 1115.15 109.659C1117.04 107.159 1119.72 105.25 1123.2 103.932C1126.68 102.614 1130.78 101.955 1135.51 101.955C1142.6 101.955 1148.19 103.443 1152.28 106.42C1156.37 109.375 1158.63 113.443 1159.06 118.625Z" fill="black"/>
</svg>
