<svg width="1920" height="240" viewBox="0 0 1920 240" fill="none" xmlns="http://www.w3.org/2000/svg">
<rect width="1920" height="240" fill="#8CFBA4"/>
<path d="M835.659 110.477H818.614C818.386 108.727 817.92 107.148 817.216 105.739C816.511 104.33 815.58 103.125 814.42 102.125C813.261 101.125 811.886 100.364 810.295 99.8409C808.727 99.2955 806.989 99.0227 805.08 99.0227C801.693 99.0227 798.773 99.8523 796.318 101.511C793.886 103.17 792.011 105.568 790.693 108.705C789.398 111.841 788.75 115.636 788.75 120.091C788.75 124.727 789.409 128.614 790.727 131.75C792.068 134.864 793.943 137.216 796.352 138.807C798.784 140.375 801.659 141.159 804.977 141.159C806.841 141.159 808.534 140.92 810.057 140.443C811.602 139.966 812.955 139.273 814.114 138.364C815.295 137.432 816.261 136.307 817.011 134.989C817.784 133.648 818.318 132.136 818.614 130.455L835.659 130.557C835.364 133.648 834.466 136.693 832.966 139.693C831.489 142.693 829.455 145.432 826.864 147.909C824.273 150.364 821.114 152.318 817.386 153.773C813.682 155.227 809.432 155.955 804.636 155.955C798.318 155.955 792.659 154.568 787.659 151.795C782.682 149 778.75 144.932 775.864 139.591C772.977 134.25 771.534 127.75 771.534 120.091C771.534 112.409 773 105.898 775.932 100.557C778.864 95.2159 782.83 91.1591 787.83 88.3864C792.83 85.6136 798.432 84.2273 804.636 84.2273C808.864 84.2273 812.773 84.8182 816.364 86C819.955 87.1591 823.114 88.8636 825.841 91.1136C828.568 93.3409 830.784 96.0795 832.489 99.3295C834.193 102.58 835.25 106.295 835.659 110.477ZM869.759 155.989C864.259 155.989 859.531 154.864 855.577 152.614C851.645 150.341 848.611 147.182 846.474 143.136C844.361 139.068 843.304 134.352 843.304 128.989C843.304 123.602 844.361 118.886 846.474 114.841C848.611 110.773 851.645 107.614 855.577 105.364C859.531 103.091 864.259 101.955 869.759 101.955C875.259 101.955 879.974 103.091 883.906 105.364C887.861 107.614 890.895 110.773 893.009 114.841C895.145 118.886 896.213 123.602 896.213 128.989C896.213 134.352 895.145 139.068 893.009 143.136C890.895 147.182 887.861 150.341 883.906 152.614C879.974 154.864 875.259 155.989 869.759 155.989ZM869.861 143.409C871.861 143.409 873.554 142.795 874.94 141.568C876.327 140.341 877.384 138.636 878.111 136.455C878.861 134.273 879.236 131.75 879.236 128.886C879.236 125.977 878.861 123.432 878.111 121.25C877.384 119.068 876.327 117.364 874.94 116.136C873.554 114.909 871.861 114.295 869.861 114.295C867.793 114.295 866.043 114.909 864.611 116.136C863.202 117.364 862.122 119.068 861.372 121.25C860.645 123.432 860.281 125.977 860.281 128.886C860.281 131.75 860.645 134.273 861.372 136.455C862.122 138.636 863.202 140.341 864.611 141.568C866.043 142.795 867.793 143.409 869.861 143.409ZM921.423 125.136V155H904.753V102.636H920.605V112.25H921.185C922.344 109.045 924.321 106.534 927.116 104.716C929.912 102.875 933.241 101.955 937.105 101.955C940.787 101.955 943.98 102.784 946.685 104.443C949.412 106.08 951.526 108.375 953.026 111.33C954.548 114.261 955.298 117.693 955.276 121.625V155H938.605V124.898C938.628 121.989 937.889 119.716 936.389 118.08C934.912 116.443 932.855 115.625 930.219 115.625C928.469 115.625 926.923 116.011 925.582 116.784C924.264 117.534 923.241 118.614 922.514 120.023C921.81 121.432 921.446 123.136 921.423 125.136ZM995.153 102.636V114.909H962.119V102.636H995.153ZM969.04 90.0909H985.71V138.534C985.71 139.557 985.869 140.386 986.188 141.023C986.528 141.636 987.017 142.08 987.653 142.352C988.29 142.602 989.051 142.727 989.938 142.727C990.574 142.727 991.244 142.67 991.949 142.557C992.676 142.42 993.222 142.307 993.585 142.216L996.108 154.25C995.313 154.477 994.188 154.761 992.733 155.102C991.301 155.443 989.585 155.659 987.585 155.75C983.676 155.932 980.324 155.477 977.528 154.386C974.756 153.273 972.631 151.545 971.153 149.205C969.699 146.864 968.994 143.92 969.04 140.375V90.0909ZM1018.42 155.886C1015.08 155.886 1012.11 155.33 1009.52 154.216C1006.95 153.08 1004.92 151.375 1003.42 149.102C1001.94 146.807 1001.2 143.932 1001.2 140.477C1001.2 137.568 1001.72 135.114 1002.74 133.114C1003.76 131.114 1005.17 129.489 1006.97 128.239C1008.76 126.989 1010.83 126.045 1013.17 125.409C1015.51 124.75 1018.01 124.307 1020.67 124.08C1023.65 123.807 1026.05 123.523 1027.86 123.227C1029.68 122.909 1031 122.466 1031.82 121.898C1032.66 121.307 1033.08 120.477 1033.08 119.409V119.239C1033.08 117.489 1032.48 116.136 1031.27 115.182C1030.07 114.227 1028.44 113.75 1026.4 113.75C1024.19 113.75 1022.42 114.227 1021.08 115.182C1019.74 116.136 1018.89 117.455 1018.52 119.136L1003.15 118.591C1003.6 115.409 1004.77 112.568 1006.66 110.068C1008.57 107.545 1011.18 105.568 1014.5 104.136C1017.84 102.682 1021.85 101.955 1026.53 101.955C1029.88 101.955 1032.95 102.352 1035.77 103.148C1038.59 103.92 1041.05 105.057 1043.14 106.557C1045.23 108.034 1046.84 109.852 1047.98 112.011C1049.14 114.17 1049.72 116.636 1049.72 119.409V155H1034.03V147.705H1033.62C1032.69 149.477 1031.5 150.977 1030.05 152.205C1028.61 153.432 1026.92 154.352 1024.97 154.966C1023.03 155.58 1020.85 155.886 1018.42 155.886ZM1023.57 144.977C1025.36 144.977 1026.98 144.614 1028.41 143.886C1029.86 143.159 1031.02 142.159 1031.89 140.886C1032.75 139.591 1033.18 138.091 1033.18 136.386V131.409C1032.7 131.659 1032.13 131.886 1031.44 132.091C1030.78 132.295 1030.06 132.489 1029.26 132.67C1028.47 132.852 1027.65 133.011 1026.81 133.148C1025.97 133.284 1025.16 133.409 1024.39 133.523C1022.82 133.773 1021.48 134.159 1020.36 134.682C1019.27 135.205 1018.43 135.886 1017.84 136.727C1017.27 137.545 1016.99 138.523 1016.99 139.659C1016.99 141.386 1017.6 142.705 1018.83 143.614C1020.08 144.523 1021.66 144.977 1023.57 144.977ZM1089.47 102.636V114.909H1056.43V102.636H1089.47ZM1063.35 90.0909H1080.02V138.534C1080.02 139.557 1080.18 140.386 1080.5 141.023C1080.84 141.636 1081.33 142.08 1081.97 142.352C1082.6 142.602 1083.36 142.727 1084.25 142.727C1084.89 142.727 1085.56 142.67 1086.26 142.557C1086.99 142.42 1087.53 142.307 1087.9 142.216L1090.42 154.25C1089.63 154.477 1088.5 154.761 1087.05 155.102C1085.61 155.443 1083.9 155.659 1081.9 155.75C1077.99 155.932 1074.64 155.477 1071.84 154.386C1069.07 153.273 1066.94 151.545 1065.47 149.205C1064.01 146.864 1063.31 143.92 1063.35 140.375V90.0909ZM1121.85 155.989C1116.35 155.989 1111.63 154.864 1107.67 152.614C1103.74 150.341 1100.7 147.182 1098.57 143.136C1096.45 139.068 1095.4 134.352 1095.4 128.989C1095.4 123.602 1096.45 118.886 1098.57 114.841C1100.7 110.773 1103.74 107.614 1107.67 105.364C1111.63 103.091 1116.35 101.955 1121.85 101.955C1127.35 101.955 1132.07 103.091 1136 105.364C1139.95 107.614 1142.99 110.773 1145.1 114.841C1147.24 118.886 1148.31 123.602 1148.31 128.989C1148.31 134.352 1147.24 139.068 1145.1 143.136C1142.99 147.182 1139.95 150.341 1136 152.614C1132.07 154.864 1127.35 155.989 1121.85 155.989ZM1121.95 143.409C1123.95 143.409 1125.65 142.795 1127.03 141.568C1128.42 140.341 1129.48 138.636 1130.2 136.455C1130.95 134.273 1131.33 131.75 1131.33 128.886C1131.33 125.977 1130.95 123.432 1130.2 121.25C1129.48 119.068 1128.42 117.364 1127.03 116.136C1125.65 114.909 1123.95 114.295 1121.95 114.295C1119.89 114.295 1118.14 114.909 1116.7 116.136C1115.3 117.364 1114.22 119.068 1113.47 121.25C1112.74 123.432 1112.38 125.977 1112.38 128.886C1112.38 131.75 1112.74 134.273 1113.47 136.455C1114.22 138.636 1115.3 140.341 1116.7 141.568C1118.14 142.795 1119.89 143.409 1121.95 143.409Z" fill="black"/>
</svg>
