<svg width="1920" height="240" viewBox="0 0 1920 240" fill="none" xmlns="http://www.w3.org/2000/svg">
<rect width="1920" height="240" fill="#8CFBA4"/>
<path d="M651.977 129.909H665.614L671.409 137.307L679.011 146.034L690.705 160.455H675.432L667.25 150.67L662.409 143.716L651.977 129.909ZM691.182 120.091C691.182 127.773 689.705 134.284 686.75 139.625C683.795 144.966 679.795 149.023 674.75 151.795C669.727 154.568 664.091 155.955 657.841 155.955C651.568 155.955 645.92 154.557 640.898 151.761C635.875 148.966 631.886 144.909 628.932 139.591C626 134.25 624.534 127.75 624.534 120.091C624.534 112.409 626 105.898 628.932 100.557C631.886 95.2159 635.875 91.1591 640.898 88.3864C645.92 85.6136 651.568 84.2273 657.841 84.2273C664.091 84.2273 669.727 85.6136 674.75 88.3864C679.795 91.1591 683.795 95.2159 686.75 100.557C689.705 105.898 691.182 112.409 691.182 120.091ZM673.932 120.091C673.932 115.545 673.284 111.705 671.989 108.568C670.716 105.432 668.875 103.057 666.466 101.443C664.08 99.8295 661.205 99.0227 657.841 99.0227C654.5 99.0227 651.625 99.8295 649.216 101.443C646.807 103.057 644.955 105.432 643.659 108.568C642.386 111.705 641.75 115.545 641.75 120.091C641.75 124.636 642.386 128.477 643.659 131.614C644.955 134.75 646.807 137.125 649.216 138.739C651.625 140.352 654.5 141.159 657.841 141.159C661.205 141.159 664.08 140.352 666.466 138.739C668.875 137.125 670.716 134.75 671.989 131.614C673.284 128.477 673.932 124.636 673.932 120.091ZM734.912 132.398V102.636H751.548V155H735.662V145.25H735.116C733.957 148.455 731.98 151 729.185 152.886C726.412 154.75 723.06 155.682 719.128 155.682C715.56 155.682 712.423 154.864 709.719 153.227C707.014 151.591 704.912 149.307 703.412 146.375C701.912 143.42 701.151 139.966 701.128 136.011V102.636H717.798V132.739C717.821 135.58 718.571 137.818 720.048 139.455C721.526 141.091 723.537 141.909 726.082 141.909C727.741 141.909 729.23 141.545 730.548 140.818C731.889 140.068 732.946 138.989 733.719 137.58C734.514 136.148 734.912 134.42 734.912 132.398ZM786.636 155.989C781.159 155.989 776.432 154.909 772.455 152.75C768.5 150.568 765.455 147.466 763.318 143.443C761.205 139.398 760.148 134.591 760.148 129.023C760.148 123.614 761.216 118.886 763.352 114.841C765.489 110.773 768.5 107.614 772.386 105.364C776.273 103.091 780.852 101.955 786.125 101.955C789.852 101.955 793.261 102.534 796.352 103.693C799.443 104.852 802.114 106.568 804.364 108.841C806.614 111.114 808.364 113.92 809.614 117.261C810.864 120.58 811.489 124.386 811.489 128.682V132.841H765.977V123.159H795.977C795.955 121.386 795.534 119.807 794.716 118.42C793.898 117.034 792.773 115.955 791.341 115.182C789.932 114.386 788.307 113.989 786.466 113.989C784.602 113.989 782.932 114.409 781.455 115.25C779.977 116.068 778.807 117.193 777.943 118.625C777.08 120.034 776.625 121.636 776.58 123.432V133.284C776.58 135.42 777 137.295 777.841 138.909C778.682 140.5 779.875 141.739 781.42 142.625C782.966 143.511 784.807 143.955 786.943 143.955C788.42 143.955 789.761 143.75 790.966 143.341C792.17 142.932 793.205 142.33 794.068 141.534C794.932 140.739 795.58 139.761 796.011 138.602L811.318 139.045C810.682 142.477 809.284 145.466 807.125 148.011C804.989 150.534 802.182 152.5 798.705 153.909C795.227 155.295 791.205 155.989 786.636 155.989ZM820.003 155V102.636H835.855V112.25H836.435C837.526 109.068 839.366 106.557 841.957 104.716C844.548 102.875 847.639 101.955 851.23 101.955C854.866 101.955 857.98 102.886 860.571 104.75C863.162 106.614 864.81 109.114 865.514 112.25H866.06C867.037 109.136 868.946 106.648 871.787 104.784C874.628 102.898 877.98 101.955 881.844 101.955C886.798 101.955 890.821 103.545 893.912 106.727C897.003 109.886 898.548 114.227 898.548 119.75V155H881.878V123.568C881.878 120.955 881.207 118.966 879.866 117.602C878.526 116.216 876.787 115.523 874.651 115.523C872.355 115.523 870.548 116.273 869.23 117.773C867.935 119.25 867.287 121.239 867.287 123.739V155H851.264V123.398C851.264 120.966 850.605 119.045 849.287 117.636C847.969 116.227 846.23 115.523 844.071 115.523C842.616 115.523 841.332 115.875 840.219 116.58C839.105 117.261 838.23 118.239 837.594 119.511C836.98 120.784 836.673 122.284 836.673 124.011V155H820.003ZM975.219 118.625L959.912 119.034C959.753 117.943 959.321 116.977 958.616 116.136C957.912 115.273 956.991 114.602 955.855 114.125C954.741 113.625 953.446 113.375 951.969 113.375C950.037 113.375 948.389 113.761 947.026 114.534C945.685 115.307 945.026 116.352 945.048 117.67C945.026 118.693 945.435 119.58 946.276 120.33C947.139 121.08 948.673 121.682 950.878 122.136L960.969 124.045C966.196 125.045 970.082 126.705 972.628 129.023C975.196 131.341 976.491 134.409 976.514 138.227C976.491 141.818 975.423 144.943 973.31 147.602C971.219 150.261 968.355 152.33 964.719 153.807C961.082 155.261 956.923 155.989 952.241 155.989C944.764 155.989 938.866 154.455 934.548 151.386C930.253 148.295 927.798 144.159 927.185 138.977L943.651 138.568C944.014 140.477 944.957 141.932 946.48 142.932C948.003 143.932 949.946 144.432 952.31 144.432C954.446 144.432 956.185 144.034 957.526 143.239C958.866 142.443 959.548 141.386 959.571 140.068C959.548 138.886 959.026 137.943 958.003 137.239C956.98 136.511 955.378 135.943 953.196 135.534L944.06 133.795C938.81 132.841 934.901 131.08 932.332 128.511C929.764 125.92 928.491 122.625 928.514 118.625C928.491 115.125 929.423 112.136 931.31 109.659C933.196 107.159 935.878 105.25 939.355 103.932C942.832 102.614 946.935 101.955 951.662 101.955C958.753 101.955 964.344 103.443 968.435 106.42C972.526 109.375 974.787 113.443 975.219 118.625ZM1009.16 155.989C1003.66 155.989 998.938 154.864 994.983 152.614C991.051 150.341 988.017 147.182 985.881 143.136C983.767 139.068 982.71 134.352 982.71 128.989C982.71 123.602 983.767 118.886 985.881 114.841C988.017 110.773 991.051 107.614 994.983 105.364C998.938 103.091 1003.66 101.955 1009.16 101.955C1014.66 101.955 1019.38 103.091 1023.31 105.364C1027.27 107.614 1030.3 110.773 1032.41 114.841C1034.55 118.886 1035.62 123.602 1035.62 128.989C1035.62 134.352 1034.55 139.068 1032.41 143.136C1030.3 147.182 1027.27 150.341 1023.31 152.614C1019.38 154.864 1014.66 155.989 1009.16 155.989ZM1009.27 143.409C1011.27 143.409 1012.96 142.795 1014.35 141.568C1015.73 140.341 1016.79 138.636 1017.52 136.455C1018.27 134.273 1018.64 131.75 1018.64 128.886C1018.64 125.977 1018.27 123.432 1017.52 121.25C1016.79 119.068 1015.73 117.364 1014.35 116.136C1012.96 114.909 1011.27 114.295 1009.27 114.295C1007.2 114.295 1005.45 114.909 1004.02 116.136C1002.61 117.364 1001.53 119.068 1000.78 121.25C1000.05 123.432 999.688 125.977 999.688 128.886C999.688 131.75 1000.05 134.273 1000.78 136.455C1001.53 138.636 1002.61 140.341 1004.02 141.568C1005.45 142.795 1007.2 143.409 1009.27 143.409ZM1044.16 155V102.636H1060.01V112.25H1060.59C1061.68 109.068 1063.52 106.557 1066.11 104.716C1068.7 102.875 1071.8 101.955 1075.39 101.955C1079.02 101.955 1082.14 102.886 1084.73 104.75C1087.32 106.614 1088.97 109.114 1089.67 112.25H1090.22C1091.19 109.136 1093.1 106.648 1095.94 104.784C1098.78 102.898 1102.14 101.955 1106 101.955C1110.95 101.955 1114.98 103.545 1118.07 106.727C1121.16 109.886 1122.7 114.227 1122.7 119.75V155H1106.03V123.568C1106.03 120.955 1105.36 118.966 1104.02 117.602C1102.68 116.216 1100.94 115.523 1098.81 115.523C1096.51 115.523 1094.7 116.273 1093.39 117.773C1092.09 119.25 1091.44 121.239 1091.44 123.739V155H1075.42V123.398C1075.42 120.966 1074.76 119.045 1073.44 117.636C1072.13 116.227 1070.39 115.523 1068.23 115.523C1066.77 115.523 1065.49 115.875 1064.38 116.58C1063.26 117.261 1062.39 118.239 1061.75 119.511C1061.14 120.784 1060.83 122.284 1060.83 124.011V155H1044.16ZM1157.48 155.989C1151.98 155.989 1147.25 154.864 1143.3 152.614C1139.36 150.341 1136.33 147.182 1134.19 143.136C1132.08 139.068 1131.02 134.352 1131.02 128.989C1131.02 123.602 1132.08 118.886 1134.19 114.841C1136.33 110.773 1139.36 107.614 1143.3 105.364C1147.25 103.091 1151.98 101.955 1157.48 101.955C1162.98 101.955 1167.69 103.091 1171.62 105.364C1175.58 107.614 1178.61 110.773 1180.73 114.841C1182.86 118.886 1183.93 123.602 1183.93 128.989C1183.93 134.352 1182.86 139.068 1180.73 143.136C1178.61 147.182 1175.58 150.341 1171.62 152.614C1167.69 154.864 1162.98 155.989 1157.48 155.989ZM1157.58 143.409C1159.58 143.409 1161.27 142.795 1162.66 141.568C1164.05 140.341 1165.1 138.636 1165.83 136.455C1166.58 134.273 1166.95 131.75 1166.95 128.886C1166.95 125.977 1166.58 123.432 1165.83 121.25C1165.1 119.068 1164.05 117.364 1162.66 116.136C1161.27 114.909 1159.58 114.295 1157.58 114.295C1155.51 114.295 1153.76 114.909 1152.33 116.136C1150.92 117.364 1149.84 119.068 1149.09 121.25C1148.36 123.432 1148 125.977 1148 128.886C1148 131.75 1148.36 134.273 1149.09 136.455C1149.84 138.636 1150.92 140.341 1152.33 141.568C1153.76 142.795 1155.51 143.409 1157.58 143.409ZM1238.19 118.625L1222.88 119.034C1222.72 117.943 1222.29 116.977 1221.59 116.136C1220.88 115.273 1219.96 114.602 1218.82 114.125C1217.71 113.625 1216.41 113.375 1214.94 113.375C1213.01 113.375 1211.36 113.761 1209.99 114.534C1208.65 115.307 1207.99 116.352 1208.02 117.67C1207.99 118.693 1208.4 119.58 1209.24 120.33C1210.11 121.08 1211.64 121.682 1213.85 122.136L1223.94 124.045C1229.16 125.045 1233.05 126.705 1235.6 129.023C1238.16 131.341 1239.46 134.409 1239.48 138.227C1239.46 141.818 1238.39 144.943 1236.28 147.602C1234.19 150.261 1231.32 152.33 1227.69 153.807C1224.05 155.261 1219.89 155.989 1215.21 155.989C1207.73 155.989 1201.84 154.455 1197.52 151.386C1193.22 148.295 1190.77 144.159 1190.15 138.977L1206.62 138.568C1206.98 140.477 1207.93 141.932 1209.45 142.932C1210.97 143.932 1212.91 144.432 1215.28 144.432C1217.41 144.432 1219.15 144.034 1220.49 143.239C1221.84 142.443 1222.52 141.386 1222.54 140.068C1222.52 138.886 1221.99 137.943 1220.97 137.239C1219.95 136.511 1218.35 135.943 1216.16 135.534L1207.03 133.795C1201.78 132.841 1197.87 131.08 1195.3 128.511C1192.73 125.92 1191.46 122.625 1191.48 118.625C1191.46 115.125 1192.39 112.136 1194.28 109.659C1196.16 107.159 1198.85 105.25 1202.32 103.932C1205.8 102.614 1209.9 101.955 1214.63 101.955C1221.72 101.955 1227.31 103.443 1231.4 106.42C1235.49 109.375 1237.76 113.443 1238.19 118.625ZM1260.82 133.625V132.227C1260.82 128.364 1261.13 125.284 1261.77 122.989C1262.43 120.693 1263.38 118.852 1264.63 117.466C1265.88 116.057 1267.41 114.773 1269.2 113.614C1270.63 112.705 1271.91 111.784 1273.02 110.852C1274.16 109.898 1275.05 108.875 1275.71 107.784C1276.37 106.693 1276.7 105.455 1276.7 104.068C1276.7 102.727 1276.38 101.545 1275.75 100.523C1275.11 99.5 1274.24 98.7159 1273.12 98.1705C1272.03 97.6023 1270.82 97.3182 1269.47 97.3182C1268.13 97.3182 1266.87 97.625 1265.69 98.2386C1264.53 98.8523 1263.58 99.7273 1262.83 100.864C1262.1 101.977 1261.72 103.33 1261.7 104.92H1246.02C1246.09 100.148 1247.19 96.2386 1249.33 93.1932C1251.49 90.1477 1254.34 87.8977 1257.88 86.4432C1261.43 84.9659 1265.34 84.2273 1269.61 84.2273C1274.29 84.2273 1278.45 84.9545 1282.09 86.4091C1285.75 87.8636 1288.62 90.0114 1290.71 92.8523C1292.8 95.6932 1293.85 99.1705 1293.85 103.284C1293.85 105.989 1293.39 108.375 1292.49 110.443C1291.58 112.511 1290.3 114.341 1288.67 115.932C1287.05 117.5 1285.16 118.932 1282.97 120.227C1281.27 121.227 1279.85 122.273 1278.71 123.364C1277.6 124.455 1276.76 125.705 1276.19 127.114C1275.62 128.5 1275.34 130.205 1275.34 132.227V133.625H1260.82ZM1268.35 155.989C1265.89 155.989 1263.79 155.125 1262.04 153.398C1260.32 151.67 1259.46 149.58 1259.49 147.125C1259.46 144.716 1260.32 142.659 1262.04 140.955C1263.79 139.227 1265.89 138.364 1268.35 138.364C1270.69 138.364 1272.75 139.227 1274.52 140.955C1276.29 142.659 1277.19 144.716 1277.21 147.125C1277.19 148.761 1276.76 150.25 1275.92 151.591C1275.1 152.932 1274.02 154 1272.68 154.795C1271.36 155.591 1269.92 155.989 1268.35 155.989Z" fill="black"/>
</svg>
