<svg width="1920" height="240" viewBox="0 0 1920 240" fill="none" xmlns="http://www.w3.org/2000/svg">
<rect width="1920" height="240" fill="#8CFBA4"/>
<g filter="url(#filter0_d_1_2)">
<path d="M629.023 106.114C628.795 103.614 627.784 101.67 625.989 100.284C624.216 98.875 621.682 98.1705 618.386 98.1705C616.205 98.1705 614.386 98.4545 612.932 99.0227C611.477 99.5909 610.386 100.375 609.659 101.375C608.932 102.352 608.557 103.477 608.534 104.75C608.489 105.795 608.693 106.716 609.148 107.511C609.625 108.307 610.307 109.011 611.193 109.625C612.102 110.216 613.193 110.739 614.466 111.193C615.739 111.648 617.17 112.045 618.761 112.386L624.761 113.75C628.216 114.5 631.261 115.5 633.898 116.75C636.557 118 638.784 119.489 640.58 121.216C642.398 122.943 643.773 124.932 644.705 127.182C645.636 129.432 646.114 131.955 646.136 134.75C646.114 139.159 645 142.943 642.795 146.102C640.591 149.261 637.42 151.682 633.284 153.364C629.17 155.045 624.205 155.886 618.386 155.886C612.545 155.886 607.455 155.011 603.114 153.261C598.773 151.511 595.398 148.852 592.989 145.284C590.58 141.716 589.341 137.205 589.273 131.75H605.432C605.568 134 606.17 135.875 607.239 137.375C608.307 138.875 609.773 140.011 611.636 140.784C613.523 141.557 615.705 141.943 618.182 141.943C620.455 141.943 622.386 141.636 623.977 141.023C625.591 140.409 626.83 139.557 627.693 138.466C628.557 137.375 629 136.125 629.023 134.716C629 133.398 628.591 132.273 627.795 131.341C627 130.386 625.773 129.568 624.114 128.886C622.477 128.182 620.386 127.534 617.841 126.943L610.545 125.239C604.5 123.852 599.739 121.614 596.261 118.523C592.784 115.409 591.057 111.205 591.08 105.909C591.057 101.591 592.216 97.8068 594.557 94.5568C596.898 91.3068 600.136 88.7727 604.273 86.9545C608.409 85.1364 613.125 84.2273 618.42 84.2273C623.83 84.2273 628.523 85.1477 632.5 86.9886C636.5 88.8068 639.602 91.3636 641.807 94.6591C644.011 97.9545 645.136 101.773 645.182 106.114H629.023ZM679.102 155.989C673.602 155.989 668.875 154.864 664.92 152.614C660.989 150.341 657.955 147.182 655.818 143.136C653.705 139.068 652.648 134.352 652.648 128.989C652.648 123.602 653.705 118.886 655.818 114.841C657.955 110.773 660.989 107.614 664.92 105.364C668.875 103.091 673.602 101.955 679.102 101.955C684.602 101.955 689.318 103.091 693.25 105.364C697.205 107.614 700.239 110.773 702.352 114.841C704.489 118.886 705.557 123.602 705.557 128.989C705.557 134.352 704.489 139.068 702.352 143.136C700.239 147.182 697.205 150.341 693.25 152.614C689.318 154.864 684.602 155.989 679.102 155.989ZM679.205 143.409C681.205 143.409 682.898 142.795 684.284 141.568C685.67 140.341 686.727 138.636 687.455 136.455C688.205 134.273 688.58 131.75 688.58 128.886C688.58 125.977 688.205 123.432 687.455 121.25C686.727 119.068 685.67 117.364 684.284 116.136C682.898 114.909 681.205 114.295 679.205 114.295C677.136 114.295 675.386 114.909 673.955 116.136C672.545 117.364 671.466 119.068 670.716 121.25C669.989 123.432 669.625 125.977 669.625 128.886C669.625 131.75 669.989 134.273 670.716 136.455C671.466 138.636 672.545 140.341 673.955 141.568C675.386 142.795 677.136 143.409 679.205 143.409ZM714.097 155V102.636H730.29V112.182H730.835C731.79 108.727 733.347 106.159 735.506 104.477C737.665 102.773 740.176 101.92 743.04 101.92C743.813 101.92 744.608 101.977 745.426 102.091C746.244 102.182 747.006 102.33 747.71 102.534V117.023C746.915 116.75 745.869 116.534 744.574 116.375C743.301 116.216 742.165 116.136 741.165 116.136C739.188 116.136 737.403 116.58 735.812 117.466C734.244 118.33 733.006 119.545 732.097 121.114C731.21 122.659 730.767 124.477 730.767 126.568V155H714.097ZM754.503 155V102.636H770.696V112.182H771.241C772.196 108.727 773.753 106.159 775.912 104.477C778.071 102.773 780.582 101.92 783.446 101.92C784.219 101.92 785.014 101.977 785.832 102.091C786.651 102.182 787.412 102.33 788.116 102.534V117.023C787.321 116.75 786.276 116.534 784.98 116.375C783.707 116.216 782.571 116.136 781.571 116.136C779.594 116.136 777.81 116.58 776.219 117.466C774.651 118.33 773.412 119.545 772.503 121.114C771.616 122.659 771.173 124.477 771.173 126.568V155H754.503ZM794.909 155V102.636H811.58V155H794.909ZM803.261 96.5341C800.92 96.5341 798.909 95.7614 797.227 94.2159C795.545 92.6477 794.705 90.7614 794.705 88.5568C794.705 86.375 795.545 84.5114 797.227 82.9659C798.909 81.3977 800.92 80.6136 803.261 80.6136C805.625 80.6136 807.636 81.3977 809.295 82.9659C810.977 84.5114 811.818 86.375 811.818 88.5568C811.818 90.7614 810.977 92.6477 809.295 94.2159C807.636 95.7614 805.625 96.5341 803.261 96.5341ZM867.906 118.625L852.599 119.034C852.44 117.943 852.009 116.977 851.304 116.136C850.599 115.273 849.679 114.602 848.543 114.125C847.429 113.625 846.134 113.375 844.656 113.375C842.724 113.375 841.077 113.761 839.713 114.534C838.372 115.307 837.713 116.352 837.736 117.67C837.713 118.693 838.122 119.58 838.963 120.33C839.827 121.08 841.361 121.682 843.565 122.136L853.656 124.045C858.884 125.045 862.77 126.705 865.315 129.023C867.884 131.341 869.179 134.409 869.202 138.227C869.179 141.818 868.111 144.943 865.997 147.602C863.906 150.261 861.043 152.33 857.406 153.807C853.77 155.261 849.611 155.989 844.929 155.989C837.452 155.989 831.554 154.455 827.236 151.386C822.94 148.295 820.486 144.159 819.872 138.977L836.338 138.568C836.702 140.477 837.645 141.932 839.168 142.932C840.69 143.932 842.634 144.432 844.997 144.432C847.134 144.432 848.872 144.034 850.213 143.239C851.554 142.443 852.236 141.386 852.259 140.068C852.236 138.886 851.713 137.943 850.69 137.239C849.668 136.511 848.065 135.943 845.884 135.534L836.747 133.795C831.497 132.841 827.588 131.08 825.02 128.511C822.452 125.92 821.179 122.625 821.202 118.625C821.179 115.125 822.111 112.136 823.997 109.659C825.884 107.159 828.565 105.25 832.043 103.932C835.52 102.614 839.622 101.955 844.349 101.955C851.44 101.955 857.031 103.443 861.122 106.42C865.213 109.375 867.474 113.443 867.906 118.625ZM901.852 155.989C896.352 155.989 891.625 154.864 887.67 152.614C883.739 150.341 880.705 147.182 878.568 143.136C876.455 139.068 875.398 134.352 875.398 128.989C875.398 123.602 876.455 118.886 878.568 114.841C880.705 110.773 883.739 107.614 887.67 105.364C891.625 103.091 896.352 101.955 901.852 101.955C907.352 101.955 912.068 103.091 916 105.364C919.955 107.614 922.989 110.773 925.102 114.841C927.239 118.886 928.307 123.602 928.307 128.989C928.307 134.352 927.239 139.068 925.102 143.136C922.989 147.182 919.955 150.341 916 152.614C912.068 154.864 907.352 155.989 901.852 155.989ZM901.955 143.409C903.955 143.409 905.648 142.795 907.034 141.568C908.42 140.341 909.477 138.636 910.205 136.455C910.955 134.273 911.33 131.75 911.33 128.886C911.33 125.977 910.955 123.432 910.205 121.25C909.477 119.068 908.42 117.364 907.034 116.136C905.648 114.909 903.955 114.295 901.955 114.295C899.886 114.295 898.136 114.909 896.705 116.136C895.295 117.364 894.216 119.068 893.466 121.25C892.739 123.432 892.375 125.977 892.375 128.886C892.375 131.75 892.739 134.273 893.466 136.455C894.216 138.636 895.295 140.341 896.705 141.568C898.136 142.795 899.886 143.409 901.955 143.409ZM957.472 155V85.1818H986.312C991.54 85.1818 996.051 86.2045 999.847 88.25C1003.66 90.2727 1006.61 93.1023 1008.68 96.7386C1010.74 100.352 1011.78 104.557 1011.78 109.352C1011.78 114.17 1010.72 118.386 1008.61 122C1006.52 125.591 1003.53 128.375 999.642 130.352C995.756 132.33 991.142 133.318 985.801 133.318H968.006V120.023H982.665C985.21 120.023 987.335 119.58 989.04 118.693C990.767 117.807 992.074 116.568 992.96 114.977C993.847 113.364 994.29 111.489 994.29 109.352C994.29 107.193 993.847 105.33 992.96 103.761C992.074 102.17 990.767 100.943 989.04 100.08C987.313 99.2159 985.188 98.7841 982.665 98.7841H974.347V155H957.472ZM1043.54 155.989C1038.07 155.989 1033.34 154.909 1029.36 152.75C1025.41 150.568 1022.36 147.466 1020.22 143.443C1018.11 139.398 1017.05 134.591 1017.05 129.023C1017.05 123.614 1018.12 118.886 1020.26 114.841C1022.39 110.773 1025.41 107.614 1029.29 105.364C1033.18 103.091 1037.76 101.955 1043.03 101.955C1046.76 101.955 1050.17 102.534 1053.26 103.693C1056.35 104.852 1059.02 106.568 1061.27 108.841C1063.52 111.114 1065.27 113.92 1066.52 117.261C1067.77 120.58 1068.39 124.386 1068.39 128.682V132.841H1022.88V123.159H1052.88C1052.86 121.386 1052.44 119.807 1051.62 118.42C1050.8 117.034 1049.68 115.955 1048.25 115.182C1046.84 114.386 1045.21 113.989 1043.37 113.989C1041.51 113.989 1039.84 114.409 1038.36 115.25C1036.88 116.068 1035.71 117.193 1034.85 118.625C1033.99 120.034 1033.53 121.636 1033.49 123.432V133.284C1033.49 135.42 1033.91 137.295 1034.75 138.909C1035.59 140.5 1036.78 141.739 1038.33 142.625C1039.87 143.511 1041.71 143.955 1043.85 143.955C1045.33 143.955 1046.67 143.75 1047.87 143.341C1049.08 142.932 1050.11 142.33 1050.97 141.534C1051.84 140.739 1052.49 139.761 1052.92 138.602L1068.22 139.045C1067.59 142.477 1066.19 145.466 1064.03 148.011C1061.89 150.534 1059.09 152.5 1055.61 153.909C1052.13 155.295 1048.11 155.989 1043.54 155.989ZM1076.91 155V102.636H1093.1V112.182H1093.65C1094.6 108.727 1096.16 106.159 1098.32 104.477C1100.48 102.773 1102.99 101.92 1105.85 101.92C1106.63 101.92 1107.42 101.977 1108.24 102.091C1109.06 102.182 1109.82 102.33 1110.52 102.534V117.023C1109.73 116.75 1108.68 116.534 1107.39 116.375C1106.11 116.216 1104.98 116.136 1103.98 116.136C1102 116.136 1100.22 116.58 1098.62 117.466C1097.06 118.33 1095.82 119.545 1094.91 121.114C1094.02 122.659 1093.58 124.477 1093.58 126.568V155H1076.91ZM1149.51 102.636V114.909H1115.83V102.636H1149.51ZM1122.86 155V99.9773C1122.86 95.9318 1123.62 92.5795 1125.14 89.9205C1126.66 87.2386 1128.78 85.2386 1131.48 83.9205C1134.18 82.5795 1137.31 81.9091 1140.86 81.9091C1143.17 81.9091 1145.36 82.0909 1147.4 82.4545C1149.47 82.7955 1151 83.1023 1152 83.375L1149.34 95.5795C1148.73 95.375 1147.98 95.2045 1147.09 95.0682C1146.23 94.9318 1145.41 94.8636 1144.64 94.8636C1142.68 94.8636 1141.34 95.2955 1140.62 96.1591C1139.89 97.0227 1139.53 98.2045 1139.53 99.7045V155H1122.86ZM1180.32 155.989C1174.85 155.989 1170.12 154.909 1166.14 152.75C1162.19 150.568 1159.14 147.466 1157.01 143.443C1154.89 139.398 1153.84 134.591 1153.84 129.023C1153.84 123.614 1154.9 118.886 1157.04 114.841C1159.18 110.773 1162.19 107.614 1166.07 105.364C1169.96 103.091 1174.54 101.955 1179.81 101.955C1183.54 101.955 1186.95 102.534 1190.04 103.693C1193.13 104.852 1195.8 106.568 1198.05 108.841C1200.3 111.114 1202.05 113.92 1203.3 117.261C1204.55 120.58 1205.18 124.386 1205.18 128.682V132.841H1159.66V123.159H1189.66C1189.64 121.386 1189.22 119.807 1188.4 118.42C1187.59 117.034 1186.46 115.955 1185.03 115.182C1183.62 114.386 1181.99 113.989 1180.15 113.989C1178.29 113.989 1176.62 114.409 1175.14 115.25C1173.66 116.068 1172.49 117.193 1171.63 118.625C1170.77 120.034 1170.31 121.636 1170.27 123.432V133.284C1170.27 135.42 1170.69 137.295 1171.53 138.909C1172.37 140.5 1173.56 141.739 1175.11 142.625C1176.65 143.511 1178.49 143.955 1180.63 143.955C1182.11 143.955 1183.45 143.75 1184.65 143.341C1185.86 142.932 1186.89 142.33 1187.76 141.534C1188.62 140.739 1189.27 139.761 1189.7 138.602L1205.01 139.045C1204.37 142.477 1202.97 145.466 1200.81 148.011C1198.68 150.534 1195.87 152.5 1192.39 153.909C1188.91 155.295 1184.89 155.989 1180.32 155.989ZM1213.69 155V102.636H1230.36V155H1213.69ZM1222.04 96.5341C1219.7 96.5341 1217.69 95.7614 1216.01 94.2159C1214.33 92.6477 1213.49 90.7614 1213.49 88.5568C1213.49 86.375 1214.33 84.5114 1216.01 82.9659C1217.69 81.3977 1219.7 80.6136 1222.04 80.6136C1224.41 80.6136 1226.42 81.3977 1228.08 82.9659C1229.76 84.5114 1230.6 86.375 1230.6 88.5568C1230.6 90.7614 1229.76 92.6477 1228.08 94.2159C1226.42 95.7614 1224.41 96.5341 1222.04 96.5341ZM1270.53 102.636V114.909H1237.49V102.636H1270.53ZM1244.41 90.0909H1261.09V138.534C1261.09 139.557 1261.24 140.386 1261.56 141.023C1261.9 141.636 1262.39 142.08 1263.03 142.352C1263.66 142.602 1264.43 142.727 1265.31 142.727C1265.95 142.727 1266.62 142.67 1267.32 142.557C1268.05 142.42 1268.6 142.307 1268.96 142.216L1271.48 154.25C1270.69 154.477 1269.56 154.761 1268.11 155.102C1266.68 155.443 1264.96 155.659 1262.96 155.75C1259.05 155.932 1255.7 155.477 1252.9 154.386C1250.13 153.273 1248.01 151.545 1246.53 149.205C1245.07 146.864 1244.37 143.92 1244.41 140.375V90.0909ZM1302.91 155.989C1297.41 155.989 1292.69 154.864 1288.73 152.614C1284.8 150.341 1281.77 147.182 1279.63 143.136C1277.52 139.068 1276.46 134.352 1276.46 128.989C1276.46 123.602 1277.52 118.886 1279.63 114.841C1281.77 110.773 1284.8 107.614 1288.73 105.364C1292.69 103.091 1297.41 101.955 1302.91 101.955C1308.41 101.955 1313.13 103.091 1317.06 105.364C1321.02 107.614 1324.05 110.773 1326.16 114.841C1328.3 118.886 1329.37 123.602 1329.37 128.989C1329.37 134.352 1328.3 139.068 1326.16 143.136C1324.05 147.182 1321.02 150.341 1317.06 152.614C1313.13 154.864 1308.41 155.989 1302.91 155.989ZM1303.02 143.409C1305.02 143.409 1306.71 142.795 1308.1 141.568C1309.48 140.341 1310.54 138.636 1311.27 136.455C1312.02 134.273 1312.39 131.75 1312.39 128.886C1312.39 125.977 1312.02 123.432 1311.27 121.25C1310.54 119.068 1309.48 117.364 1308.1 116.136C1306.71 114.909 1305.02 114.295 1303.02 114.295C1300.95 114.295 1299.2 114.909 1297.77 116.136C1296.36 117.364 1295.28 119.068 1294.53 121.25C1293.8 123.432 1293.44 125.977 1293.44 128.886C1293.44 131.75 1293.8 134.273 1294.53 136.455C1295.28 138.636 1296.36 140.341 1297.77 141.568C1299.2 142.795 1300.95 143.409 1303.02 143.409Z" fill="#262626"/>
</g>
<path d="M445.429 66.5C425.582 66.5 412.5 83.8425 412.5 101C412.5 107.038 414.127 114.1 416.529 120.329C418.917 126.52 422.167 132.14 425.584 135.129C426.14 135.616 426.82 136.599 427.602 138.146C428.365 139.656 429.153 141.554 429.982 143.729C430.777 145.815 431.595 148.12 432.454 150.541L432.561 150.841C433.456 153.364 434.395 156 435.384 158.596C437.354 163.767 439.563 168.885 442.117 172.729C444.617 176.492 447.759 179.5 451.714 179.5C459.234 179.5 464.069 176.936 467.113 172.886C470.077 168.942 471.183 163.789 471.762 158.928C471.998 156.948 472.152 154.964 472.296 153.096C472.33 152.657 472.363 152.225 472.397 151.801C472.577 149.541 472.77 147.516 473.109 145.808C473.453 144.077 473.916 142.851 474.52 142.078C475.056 141.392 475.744 141 476.857 141C477.971 141 478.659 141.392 479.194 142.078C479.799 142.851 480.261 144.077 480.605 145.808C480.944 147.516 481.137 149.541 481.317 151.801C481.351 152.225 481.385 152.657 481.418 153.096C481.563 154.964 481.716 156.948 481.952 158.928C482.531 163.789 483.637 168.942 486.601 172.886C489.645 176.936 494.48 179.5 502 179.5C505.956 179.5 509.097 176.492 511.598 172.729C514.151 168.885 516.361 163.767 518.33 158.596C519.319 156 520.258 153.364 521.154 150.841L521.26 150.541C522.119 148.121 522.937 145.815 523.732 143.729C524.561 141.554 525.349 139.656 526.112 138.146C526.894 136.599 527.574 135.616 528.131 135.129C531.547 132.14 534.798 126.52 537.185 120.329C539.588 114.1 541.214 107.038 541.214 101C541.214 83.8425 528.132 66.5 508.286 66.5C498.667 66.5 493.785 67.9109 489.719 69.3342C489.317 69.475 488.925 69.6147 488.54 69.7522C485.144 70.9645 482.243 72 476.857 72C471.471 72 468.57 70.9645 465.174 69.7522C464.789 69.6147 464.398 69.475 463.996 69.3342C459.929 67.9109 455.047 66.5 445.429 66.5Z" fill="white" stroke="black" stroke-width="3"/>
<defs>
<filter id="filter0_d_1_2" x="585.273" y="80.6136" width="748.097" height="83.4091" filterUnits="userSpaceOnUse" color-interpolation-filters="sRGB">
<feFlood flood-opacity="0" result="BackgroundImageFix"/>
<feColorMatrix in="SourceAlpha" type="matrix" values="0 0 0 0 0 0 0 0 0 0 0 0 0 0 0 0 0 0 127 0" result="hardAlpha"/>
<feOffset dy="4"/>
<feGaussianBlur stdDeviation="2"/>
<feComposite in2="hardAlpha" operator="out"/>
<feColorMatrix type="matrix" values="0 0 0 0 0 0 0 0 0 0 0 0 0 0 0 0 0 0 0.25 0"/>
<feBlend mode="normal" in2="BackgroundImageFix" result="effect1_dropShadow_1_2"/>
<feBlend mode="normal" in="SourceGraphic" in2="effect1_dropShadow_1_2" result="shape"/>
</filter>
</defs>
</svg>
